<?xml version="1.0" standalone="no"?>
<!DOCTYPE svg PUBLIC "-//W3C//DTD SVG 20010904//EN"
 "http://www.w3.org/TR/2001/REC-SVG-20010904/DTD/svg10.dtd">
<svg version="1.0" xmlns="http://www.w3.org/2000/svg"
 width="700.000000pt" height="700.000000pt" viewBox="0 0 700.000000 700.000000"
 preserveAspectRatio="xMidYMid meet">
<metadata>
Created by potrace 1.11, written by Peter Selinger 2001-2013
</metadata>
<g transform="translate(0.000000,700.000000) scale(0.100000,-0.100000)"
fill="#000000" stroke="none">
<path d="M3365 6264 c-359 -27 -616 -84 -910 -203 -505 -204 -953 -570 -1257
-1026 -244 -367 -397 -788 -449 -1235 -15 -135 -15 -464 0 -600 126 -1106 883
-2018 1946 -2347 130 -40 359 -87 505 -104 136 -15 465 -15 600 0 849 98 1591
564 2047 1286 430 681 536 1558 282 2326 -237 718 -749 1303 -1424 1629 -281
136 -596 227 -895 259 -109 12 -371 21 -445 15z m543 -93 c662 -102 1276 -455
1693 -973 218 -270 399 -617 493 -941 122 -422 139 -901 46 -1332 -171 -792
-702 -1474 -1434 -1842 -658 -331 -1445 -374 -2145 -117 -245 90 -557 269
-766 439 -115 94 -314 294 -407 410 -281 352 -480 798 -552 1235 -44 269 -47
613 -7 862 123 765 546 1421 1196 1851 145 96 417 230 580 287 162 56 363 104
515 124 69 9 139 18 155 20 17 2 136 3 265 1 175 -2 269 -8 368 -24z"/>
<path d="M3402 4519 c-234 -22 -457 -126 -619 -291 -100 -101 -147 -165 -203
-283 -82 -168 -114 -341 -98 -538 14 -178 90 -378 196 -517 61 -81 179 -193
255 -243 340 -226 793 -226 1134 0 143 94 287 263 363 426 69 147 85 227 85
427 0 208 -16 284 -95 445 -189 389 -588 614 -1018 574z"/>
</g>
</svg>
